<svg xmlns="http://www.w3.org/2000/svg" viewBox="0 0 422.76 122.52">
    <defs>
        <style>.a{fill:#fff;}</style>
    </defs>
    <title>tenyson</title>
    <path class="path" d="M34.92,84.36q0,7.08-13.8,7.08a3.28,3.28,0,0,1-3.54-3.06A44.93,44.93,0,0,1,17,80.76,78.21,78.21,0,0,1,17.7,71q.66-5.22,1.74-11.34,2-11.76,5.82-25.38t7.5-21.06a67.21,67.21,0,0,0-15,2.7Q10.32,18.12,7.2,19a19.39,19.39,0,0,1-5.16.9q-2,0-2-1.32Q0,17,2.4,14A32.05,32.05,0,0,1,9.24,7.8,44.29,44.29,0,0,1,34.32,0L73.8.36Q77,.36,77,2.88a7.13,7.13,0,0,1-1,2.58,28.18,28.18,0,0,0-1.68,4q-1.56,4.32-6.54,4.32t-23.7-.72q-.48,5.28-1.92,13.5T39.12,44.52Q35,69.36,34.92,84.36Z" />
    <path class="path" d="M88.2,76.56q9.36,0,18.12-7.44A50.44,50.44,0,0,0,111.6,64q2-2.34,3.12-2.34,1.68,0,1.68,3.36a19.05,19.05,0,0,1-1.8,7.5,25.11,25.11,0,0,1-6,8.1q-10.32,9.72-28.32,9.72Q66,90.36,60.84,80,59,76.44,59,69.72a40.84,40.84,0,0,1,2.64-14,41.82,41.82,0,0,1,7-12.54A32,32,0,0,1,78.84,35,26.68,26.68,0,0,1,91.14,32q6.54,0,10.08,3.24a10.86,10.86,0,0,1,3.54,8.4,13.33,13.33,0,0,1-2.58,8.46,21.12,21.12,0,0,1-6.66,5.52,61.12,61.12,0,0,1-9.06,4q-5,1.74-9.78,3.9v3a6.56,6.56,0,0,0,3.6,6.12A18.08,18.08,0,0,0,88.2,76.56Zm-2-33.84q-6.24,0-8.64,14.52,2.52-1.68,4.74-3t3.9-2.52q3.6-2.64,3.72-6Q89.88,42.72,86.16,42.72Z" />
    <path class="path" d="M126.36,29.76q4.32,0,8.16,8.28a18.59,18.59,0,0,1,14-5.88q8.34,0,12.54,3.66t4.2,10.32a54.61,54.61,0,0,1-1.74,13.5q-1.74,6.84-2.52,9.78a19.72,19.72,0,0,0-.78,4.86q0,1.92,1.32,1.92,1.8,0,4.44-2.28t5.28-5l4.86-5q2.22-2.28,3.06-2.28,1.68,0,1.68,4.08,0,8.4-8.28,16.2-13.92,8.16-17.76,8.16a.69.69,0,0,1-.48-.12q-9.6,0-9.6-15.36A54.48,54.48,0,0,1,146,62.52q1.26-5.52,1.86-8a22.2,22.2,0,0,0,.6-5.16q0-4.32-5-4.32T134,52.38a46.53,46.53,0,0,0-6.06,15.3v.84a29.93,29.93,0,0,0,1.26,8.4,25.85,25.85,0,0,1,1.26,6q0,4.08-10.2,8a7.83,7.83,0,0,1-2.76.6,4.17,4.17,0,0,1-4.14-3.12q-1.14-3.12-1.14-9.72,0-17,1.32-24.6a53.31,53.31,0,0,1,8.16-21Q123.84,29.76,126.36,29.76Z" />
    <path class="path" d="M207.12,80.88A18.88,18.88,0,0,1,191,89.16q-8.16,0-13-3.42t-4.86-10.86a17.75,17.75,0,0,1,.9-5.76A46.19,46.19,0,0,1,177,62.64l3.48-28.44q3.72-2.88,10.08-2.88,5.4,0,6.12,7.2a46.92,46.92,0,0,1,.24,5.1,21.75,21.75,0,0,1-1,6.18q-4.8,16.56-4.68,22.2,0,4.32,5,4.32t7.44-3.24a30.22,30.22,0,0,0,4.08-8q3.12-13.32,5.82-22t3.42-10.32a4.7,4.7,0,0,1,4.56-3q3.36.12,6.36,4.74t3,7.14Q230.76,50,220.56,84A112.52,112.52,0,0,0,236,69q2.64-3.12,4.44-5.22t2.88-2.1q1.68,0,1.68,3.84,0,7.56-8.46,17.64a58.75,58.75,0,0,1-20.7,15.72q-1.44,4.8-3.12,9.12a27.84,27.84,0,0,1-4.32,7.56q-5.76,7-17.52,7a20.65,20.65,0,0,1-13.5-4.56,14.14,14.14,0,0,1-5.58-11.4,7.76,7.76,0,0,1,2.58-6.12,20.29,20.29,0,0,1,7.08-3.78A81.75,81.75,0,0,1,192,94q6-1.14,12.84-2.82Q206.52,84,207.12,80.88Zm-16.32,32.4q5.64,0,10.2-9.84-4.32.84-7.68,1.26t-5.76.78q-4.8.72-4.68,2.52,0,2.28,2.7,3.84A9.5,9.5,0,0,0,190.8,113.28Z" />
    <path class="path" d="M266.4,31.5q8-.06,12,3t4,8.76A14.5,14.5,0,0,1,278.94,53a18.71,18.71,0,0,1-8.34,5.7A80.66,80.66,0,0,1,276.9,66a12.73,12.73,0,0,1,2.82,7.8,14.2,14.2,0,0,1-6.36,12.42Q267,90.6,255.66,90.6t-17-4.5Q233,81.6,233,75.9a19.73,19.73,0,0,1,2.82-10.38q2.82-4.68,6.06-4.68a3,3,0,0,1,2.76,1.38,59.2,59.2,0,0,1,3.12,8,13.67,13.67,0,0,0,2.76,4.56q4.44,4.92,14,4.92A19.7,19.7,0,0,0,260,71.82q-3.18-3.3-6.3-6.42a45.59,45.59,0,0,1-5.52-6.66,14.5,14.5,0,0,1-2.4-8.34,17.41,17.41,0,0,1,6.48-14A22.58,22.58,0,0,1,266.4,31.5Zm-.48,22.26q4.8-5.16,4.8-8.28a3.7,3.7,0,0,0-4-3.72,13.7,13.7,0,0,0-3.66.48q-1.74.48-2.82.72Q260.28,47.52,265.92,53.76Z" />
    <path class="path" d="M335.64,79.44Q326.15,90.6,312.9,90.6T293,83.82A22.72,22.72,0,0,1,286.56,67a35.34,35.34,0,0,1,9-24.6Q304.66,32,319.44,32a28.82,28.82,0,0,1,10.79,1.68q7.08,2.88,7.08,5.4c0,1.28-3.29,1.94-9.89,2a22.5,22.5,0,0,0-16.57,6.84A23.44,23.44,0,0,0,304.19,65a13.28,13.28,0,0,0,3.19,9.06q3.17,3.66,9,3.66a18,18,0,0,0,9.66-2.4q-8.54-5.76-8.52-16.68a14.81,14.81,0,0,1,4.13-10.5,14.22,14.22,0,0,1,10.92-4.8c4.45,0,7.62,1.18,9.54,3.66A15.08,15.08,0,0,1,345,56.58a31.44,31.44,0,0,1-2.77,12.3H343a13.34,13.34,0,0,0,9.11-3.72c1-1,1.78-1.8,2.47-2.52a2.91,2.91,0,0,1,2.1-1.08c1.11,0,1.67,1.32,1.67,4q0,7.32-4.31,11a14.44,14.44,0,0,1-9.54,3.66A45.85,45.85,0,0,1,335.64,79.44Zm-1.08-13.92a19.76,19.76,0,0,0,2-8.4c0-2.72-.89-4.08-2.64-4.08-.73,0-1.32.52-1.81,1.56a7.29,7.29,0,0,0-.71,3A10.69,10.69,0,0,0,334.56,65.52Z" />
    <path class="path" d="M368.27,29.76c2.89,0,5.6,2.76,8.17,8.28a18.56,18.56,0,0,1,14-5.88c5.56,0,9.73,1.22,12.54,3.66s4.2,5.88,4.2,10.32a55.09,55.09,0,0,1-1.74,13.5q-1.76,6.84-2.52,9.78a19.26,19.26,0,0,0-.78,4.86c0,1.28.43,1.92,1.32,1.92,1.2,0,2.67-.76,4.44-2.28s3.52-3.18,5.28-5L418,64c1.47-1.52,2.5-2.28,3.06-2.28,1.11,0,1.68,1.36,1.68,4.08q0,8.4-8.28,16.2-13.94,8.16-17.76,8.16a.73.73,0,0,1-.49-.12q-9.6,0-9.59-15.36a54.48,54.48,0,0,1,1.26-12.12q1.25-5.52,1.86-8a22.75,22.75,0,0,0,.59-5.16q0-4.32-5-4.32t-9.48,7.38a46.31,46.31,0,0,0-6.06,15.3v.84a29.93,29.93,0,0,0,1.26,8.4,25.67,25.67,0,0,1,1.25,6q0,4.08-10.19,8a7.92,7.92,0,0,1-2.76.6,4.17,4.17,0,0,1-4.14-3.12c-.77-2.08-1.14-5.32-1.14-9.72q0-17,1.32-24.6a53.15,53.15,0,0,1,8.16-21Q365.76,29.76,368.27,29.76Z" />
</svg>